<svg width="367" height="367" viewBox="0 0 367 367" fill="none" xmlns="http://www.w3.org/2000/svg">
<path fill-rule="evenodd" clip-rule="evenodd" d="M82.7517 367H367V0H0V83.8945C42.3919 84.0752 123 84.3946 123 84.3946H173.016L150.575 93.8946L128.134 103.395H0V367H50.4292C78.0914 341.939 156.541 270.487 156.324 269.777C156.219 269.437 152.671 266.382 148.438 262.989C139.097 255.501 130.009 245.732 124.064 236.789C121.627 233.124 119.634 229.827 119.634 229.462C119.634 229.098 121.547 230.08 123.884 231.646C126.222 233.211 129.934 235.266 132.134 236.212C137.034 238.318 148.824 240.854 153.825 240.878C155.855 240.887 157.803 241.36 158.154 241.928C159.674 244.387 176.717 258.488 184.085 263.382C195.883 271.22 216.066 280.893 220.623 280.894C222.313 280.895 248.706 271.001 249.935 269.907C250.375 269.514 249.616 264.289 248.247 258.294C244.265 240.862 238.993 213.437 234.135 184.895C224.855 130.361 222.687 123.393 212.11 114.083L207.555 110.073L213.844 105.314C217.304 102.696 220.706 100.118 221.405 99.5836C222.319 98.8866 223.808 99.8026 226.697 102.841C238.577 115.329 242.078 126.312 251.575 180.895C257.966 217.618 261.712 236.937 266.766 259.224L269.902 273.054L267.562 278.05C266.275 280.797 264.506 283.428 263.63 283.897C258.206 286.8 223.733 298.895 220.883 298.895C216.104 298.895 201.204 293.759 188.493 287.732L177.851 282.685L140.248 315.395C124.634 328.977 95.8158 354.911 82.7517 367ZM215.63 89.9326C231.582 78.2896 244.634 68.5686 244.634 68.3296C244.634 67.4876 242.914 68.1316 218.134 78.2576C204.384 83.8756 181.097 93.3486 166.384 99.3076C151.671 105.267 139.634 110.445 139.634 110.814C139.634 111.183 146.37 115.965 154.603 121.44C162.835 126.915 169.554 131.62 169.534 131.895C169.513 132.17 159.596 140.651 147.496 150.742C135.395 160.833 125.674 169.269 125.893 169.487C126.457 170.052 215.634 136.711 215.634 135.936C215.634 135.585 208.917 130.161 200.706 123.884C192.496 117.606 185.969 112.162 186.202 111.785C186.435 111.409 199.677 101.575 215.63 89.9326ZM220.653 179.145C220.663 178.733 219.884 174.008 218.921 168.645C217.823 162.527 216.711 158.895 215.937 158.895C215.259 158.895 213.113 160.292 211.169 161.999C208.112 164.683 207.634 165.707 207.634 169.576C207.634 175.472 211.673 179.895 217.057 179.895C219.024 179.895 220.643 179.557 220.653 179.145Z" fill="#E12F92"/>
</svg>
